<svg width="48" height="48" viewBox="0 0 48 48" fill="none" xmlns="http://www.w3.org/2000/svg">
<rect width="48" height="48" rx="4" fill="#F9FAFC"/>
<path fill-rule="evenodd" clip-rule="evenodd" d="M34.5839 17.9482L24.7197 12.7534C24.4969 12.6341 24.2476 12.5715 23.9943 12.5715C23.741 12.5715 23.4917 12.6341 23.2689 12.7534L13.4047 17.9482C13.0953 18.1107 12.8495 18.3707 12.7062 18.6871C12.5629 19.0035 12.5302 19.3583 12.6134 19.6951C12.6966 20.032 12.891 20.3317 13.1656 20.5469C13.4403 20.7621 13.7796 20.8804 14.1298 20.8832H33.8582C34.2085 20.8806 34.5479 20.7623 34.8226 20.5471C35.0974 20.332 35.2917 20.0322 35.375 19.6954C35.4583 19.3585 35.4258 19.0037 35.2825 18.6872C35.1391 18.3708 34.8933 18.1108 34.5839 17.9482ZM14.1288 19.3248L23.993 14.13L33.8572 19.3248H14.1288ZM33.8572 33.8702H14.1288C13.92 33.8702 13.7198 33.9524 13.5722 34.0985C13.4247 34.2447 13.3417 34.4428 13.3417 34.6495C13.3417 34.8561 13.4247 35.0543 13.5722 35.2004C13.7198 35.3465 13.92 35.4287 14.1288 35.4287H33.8572C34.0659 35.4288 34.2662 35.3468 34.4138 35.2008C34.5615 35.0547 34.6446 34.8566 34.6447 34.65C34.6449 34.4433 34.5621 34.245 34.4146 34.0988C34.2671 33.9525 34.067 33.8704 33.8582 33.8702H33.8572ZM33.8572 23.4806C34.0659 23.4806 34.2661 23.3985 34.4137 23.2523C34.5613 23.1062 34.6442 22.9081 34.6442 22.7014C34.6442 22.4947 34.5613 22.2966 34.4137 22.1505C34.2661 22.0043 34.0659 21.9222 33.8572 21.9222H14.1288C13.92 21.9222 13.7198 22.0043 13.5722 22.1505C13.4247 22.2966 13.3417 22.4947 13.3417 22.7014C13.3417 22.9081 13.4247 23.1062 13.5722 23.2523C13.7198 23.3985 13.92 23.4806 14.1288 23.4806H15.1204V31.2728H14.1288C13.92 31.2728 13.7198 31.355 13.5722 31.5011C13.4247 31.6472 13.3417 31.8454 13.3417 32.0521C13.3417 32.2587 13.4247 32.4569 13.5722 32.603C13.7198 32.7491 13.92 32.8313 14.1288 32.8313H33.8572C34.0659 32.8313 34.2661 32.7491 34.4137 32.603C34.5613 32.4569 34.6442 32.2587 34.6442 32.0521C34.6442 31.8454 34.5613 31.6472 34.4137 31.5011C34.2661 31.355 34.0659 31.2728 33.8572 31.2728H32.429V23.4806H33.8572ZM21.9157 23.4806H22.9819V31.2728H21.9167V23.4806H21.9157ZM20.3584 31.2728H19.309V23.4806H20.3584V31.2728ZM24.556 23.4806H25.5959V31.2728H24.556V23.4806ZM27.1794 23.4806H28.2288V31.2728H27.1794V23.4806ZM16.6856 23.4806H17.7397V31.2728H16.6856V23.4806ZM30.8523 31.2728H29.8029V23.4806H30.8523V31.2728Z" fill="#024DA5"/>
<rect x="0.5" y="0.5" width="47" height="47" rx="3.5" stroke="#9FABB9" stroke-opacity="0.2"/>
</svg>
