<?xml version="1.0" encoding="utf-8"?>
<!-- Generator: Adobe Illustrator 25.1.0, SVG Export Plug-In . SVG Version: 6.00 Build 0)  -->
<svg version="1.1" id="Layer_1" xmlns="http://www.w3.org/2000/svg" xmlns:xlink="http://www.w3.org/1999/xlink" x="0px" y="0px"
	 viewBox="0 0 25 25" style="enable-background:new 0 0 25 25;" xml:space="preserve">
<style type="text/css">
	.st0{fill:none;stroke:#000000;}
	.st1{fill:#FFFFFF;}
</style>
<g>
	<path d="M12.5,0C5.6,0,0,5.6,0,12.5S5.6,25,12.5,25S25,19.4,25,12.5S19.4,0,12.5,0z M12.5,24C6.2,24,1,18.8,1,12.5S6.2,1,12.5,1
		S24,6.2,24,12.5S18.8,24,12.5,24z"/>
	<path d="M10.6,8.9v2.1H8.9v2.6h1.7v6h2.6v-6h2.6v-2.6h-2.6V9.4c0,0,0-0.1,0-0.1c0-0.4,0.4-0.8,0.9-0.8h1.7V5.9h-2.1
		C12,5.9,10.7,7.3,10.6,8.9z"/>
</g>
</svg>
