<?xml version="1.0" encoding="utf-8"?>
<!-- Generator: Adobe Illustrator 25.1.0, SVG Export Plug-In . SVG Version: 6.00 Build 0)  -->
<svg version="1.1" id="Layer_1" xmlns="http://www.w3.org/2000/svg" xmlns:xlink="http://www.w3.org/1999/xlink" x="0px" y="0px"
	 viewBox="0 0 25 25" style="enable-background:new 0 0 25 25;" xml:space="preserve">
<style type="text/css">
	.st0{fill:none;stroke:#000000;}
	.st1{fill:#FFFFFF;}
</style>
<g>
	<path d="M12.5,0C5.6,0,0,5.6,0,12.5C0,19.4,5.6,25,12.5,25C19.4,25,25,19.4,25,12.5C25,5.6,19.4,0,12.5,0z M12.5,24
		C6.2,24,1,18.8,1,12.5C1,6.2,6.2,1,12.5,1C18.8,1,24,6.2,24,12.5C24,18.8,18.8,24,12.5,24z"/>
	<path d="M20,8.9c-0.2-0.8-0.9-1.3-1.7-1.4c-0.4-0.1-0.9-0.1-1.3-0.1c-0.6,0-1.2-0.1-1.9-0.1c-0.9,0-1.7,0-2.6,0
		c-1.2,0-2.4,0-3.6,0.1c-0.2,0-0.5,0-0.7,0c-0.4,0-0.7,0-1.1,0.1c-0.3,0-0.5,0.1-0.8,0.1C5.9,7.7,5.5,8,5.2,8.5
		C5.1,8.7,4.9,9,4.9,9.4C4.8,9.7,4.8,10,4.7,10.3c0,0.4-0.1,0.9-0.1,1.3c0,0.7,0,1.4,0,2c0,0.2,0,0.3,0,0.5c0,0.5,0.1,0.9,0.1,1.4
		c0,0.4,0.1,0.8,0.3,1.2c0.1,0.3,0.2,0.5,0.4,0.7c0.3,0.3,0.6,0.5,1,0.5c0.5,0.1,0.9,0.2,1.4,0.2c0.8,0,1.7,0.1,2.5,0.1
		c0.7,0,3.2,0,3.7,0c0.6,0,1.1,0,1.7,0c0.7,0,1.3-0.1,2-0.1c0.3,0,0.6-0.1,0.9-0.1c0.6-0.1,1.1-0.5,1.3-1c0.1-0.2,0.1-0.4,0.2-0.5
		c0.1-0.4,0.2-0.7,0.2-1.1c0-0.4,0.1-0.9,0.1-1.3c0-0.7,0-1.4,0-2c0-0.7-0.1-1.3-0.1-2C20.2,9.7,20.1,9.3,20,8.9z M10.9,14.9v-4.4
		c1.4,0.7,2.8,1.5,4.2,2.2C13.7,13.4,12.3,14.2,10.9,14.9z"/>
</g>
</svg>
