<?xml version="1.0" encoding="utf-8"?>
<!-- Generator: Adobe Illustrator 25.1.0, SVG Export Plug-In . SVG Version: 6.00 Build 0)  -->
<svg version="1.1" id="Layer_1" xmlns="http://www.w3.org/2000/svg" xmlns:xlink="http://www.w3.org/1999/xlink" x="0px" y="0px"
	 viewBox="0 0 25 25" style="enable-background:new 0 0 25 25;" xml:space="preserve">
<style type="text/css">
	.st0{fill:none;stroke:#000000;}
	.st1{fill:#FFFFFF;}
</style>
<g>
	<path d="M12.5,0C5.6,0,0,5.6,0,12.5S5.6,25,12.5,25C19.4,25,25,19.4,25,12.5S19.4,0,12.5,0z M12.5,24C6.2,24,1,18.8,1,12.5
		S6.2,1,12.5,1C18.8,1,24,6.2,24,12.5S18.8,24,12.5,24z"/>
	<path d="M15.5,5.7H9.5c-2.1,0-3.7,1.7-3.7,3.7v6.1c0,2.1,1.7,3.7,3.7,3.7h6.1c2.1,0,3.7-1.7,3.7-3.7V9.5
		C19.3,7.4,17.6,5.7,15.5,5.7z M15.5,18.1H9.5c-1.4,0-2.5-1.1-2.5-2.5V9.5c0-1.4,1.1-2.5,2.5-2.5h6.1c1.4,0,2.5,1.1,2.5,2.5v6.1l0,0
		C18.1,16.9,16.9,18.1,15.5,18.1z"/>
	<path d="M12.5,9C10.6,9,9,10.6,9,12.5s1.6,3.5,3.5,3.5c1.9,0,3.5-1.6,3.5-3.5C16,10.6,14.4,9,12.5,9z M12.5,14.8
		c-1.3,0-2.3-1-2.3-2.3s1-2.3,2.3-2.3s2.3,1,2.3,2.3S13.8,14.8,12.5,14.8z"/>
	<path d="M16.2,8C16.2,8,16.2,8,16.2,8c-0.2,0-0.5,0.1-0.6,0.3c-0.2,0.2-0.3,0.4-0.3,0.6c0,0.2,0.1,0.5,0.3,0.6
		c0.2,0.2,0.4,0.3,0.6,0.3c0.2,0,0.5-0.1,0.6-0.3C16.9,9.3,17,9.1,17,8.9C17,8.4,16.6,8,16.2,8z"/>
</g>
</svg>
